<svg width="413.9324462890625px" height="122.02138671875px" xmlns="http://www.w3.org/2000/svg" viewBox="43.033776855468744 13.989306640625003 413.9324462890625 122.02138671875" style="background: rgba(0, 0, 0, 0);" preserveAspectRatio="xMidYMid"><defs><linearGradient id="editing-gradow-gradient" x1="0" x2="1" y1="0.5" y2="0.5" gradientUnits="objectBoundingBox"><stop offset="0" stop-color="#f0f"></stop><stop offset="1" stop-color="#0ff"></stop></linearGradient><filter id="editing-gradow-filter" x="-100%" y="-100%" width="300%" height="300%"><feFlood flood-color="#fffcd9" result="flood"></feFlood><feComposite operator="in" in2="SourceAlpha" in="flood" result="shadow"></feComposite><feOffset dx="-4" dy="-4" in="SourceGraphic" result="offset-1"></feOffset><feOffset dx="4" dy="4" in="shadow" result="offset-2"></feOffset><feMerge><feMergeNode in="offset-2"></feMergeNode><feMergeNode in="offset-1"></feMergeNode></feMerge></filter></defs><g filter="url(#editing-gradow-filter)"><g transform="translate(105.9562475681305, 97.45718765258789)"><path d="M42.62-26.56L42.62-26.56L42.62-26.56Q42.62 0.70 13.06 0.70L13.06 0.70L13.06 0.70Q8.32 0.70 0.51-0.45L0.51-0.45L7.68-38.27L7.68-38.27Q8.19-40.83 8.51-42.30L8.51-42.30L8.51-42.30Q18.24-43.01 22.56-43.01L22.56-43.01L22.56-43.01Q26.88-43.01 30.85-42.11L30.85-42.11L30.85-42.11Q34.82-41.22 37.44-39.23L37.44-39.23L37.44-39.23Q42.62-35.33 42.62-26.56ZM29.44-28.93L29.44-28.93L29.44-28.93Q29.44-38.46 22.59-38.46L22.59-38.46L21.95-38.46L21.95-38.46Q21.63-38.46 21.31-38.40L21.31-38.40L14.72-4.03L14.72-4.03Q14.98-3.90 15.23-3.90L15.23-3.90L15.74-3.90L15.74-3.90Q18.11-3.90 20.58-5.38L20.58-5.38L20.58-5.38Q23.04-6.85 24.96-9.86L24.96-9.86L24.96-9.86Q29.44-16.83 29.44-28.93ZM73.22-9.86L73.22-9.86L73.22-9.86Q74.43-8.32 74.43-5.82L74.43-5.82L74.43-5.82Q74.43-2.37 71.87-0.54L71.87-0.54L71.87-0.54Q69.31 1.28 65.28 1.28L65.28 1.28L65.28 1.28Q62.98 1.28 59.46 0.77L59.46 0.77L59.46 0.77Q52.54-0.32 50.43-0.32L50.43-0.32L50.43-0.32Q48.32-0.32 47.49-0.22L47.49-0.22L47.49-0.22Q46.66-0.13 45.31 0L45.31 0L53.18-42.24L80.77-42.24L80.77-42.24Q80.77-38.34 78.88-36.29L78.88-36.29L78.88-36.29Q76.99-34.24 73.28-34.24L73.28-34.24L73.28-34.24Q69.57-34.24 65.79-35.97L65.79-35.97L63.81-24.77L75.20-24.77L75.20-24.77Q75.20-21.38 73.54-19.49L73.54-19.49L73.54-19.49Q71.87-17.60 69.09-17.60L69.09-17.60L69.09-17.60Q66.30-17.60 64.58-18.24L64.58-18.24L64.58-18.24Q62.85-18.88 62.66-19.07L62.66-19.07L60.35-6.98L60.35-6.98Q61.89-6.78 64.77-6.78L64.77-6.78L64.77-6.78Q69.70-6.78 73.22-9.86ZM85.44-31.17L85.44-31.17L85.44-31.17Q83.26-32.83 83.26-36.38L83.26-36.38L83.26-36.38Q83.26-39.94 85.60-41.79L85.60-41.79L85.60-41.79Q87.94-43.65 91.97-43.65L91.97-43.65L91.97-43.65Q94.53-43.65 100.61-42.75L100.61-42.75L104.96-42.11L104.96-42.11Q107.14-41.86 109.41-41.86L109.41-41.86L109.41-41.86Q111.68-41.86 113.22-42.82L113.22-42.82L113.22-42.82Q115.52-40.77 115.52-37.82L115.52-37.82L115.52-37.82Q115.52-34.88 112.90-32.77L112.90-32.77L112.90-32.77Q110.21-30.53 106.75-30.53L106.75-30.53L106.75-30.53Q105.09-30.53 102.40-30.98L102.40-30.98L102.40-30.98Q99.26-21.12 99.26-14.27L99.26-14.27L99.26-14.27Q99.26-7.42 102.72-3.84L102.72-3.84L102.72-3.84Q101.12-0.96 98.75 0.16L98.75 0.16L98.75 0.16Q96.38 1.28 92.83 1.28L92.83 1.28L92.83 1.28Q89.28 1.28 87.07-0.67L87.07-0.67L87.07-0.67Q84.86-2.62 84.86-6.66L84.86-6.66L84.86-6.66Q84.86-11.33 87.42-19.01L87.42-19.01L87.42-19.01Q89.98-26.62 93.82-32.45L93.82-32.45L93.82-32.45Q91.97-32.64 90.05-32.64L90.05-32.64L90.05-32.64Q86.08-32.64 85.44-31.17ZM140.80-9.86L140.80-9.86L140.80-9.86Q142.02-8.32 142.02-5.82L142.02-5.82L142.02-5.82Q142.02-2.37 139.46-0.54L139.46-0.54L139.46-0.54Q136.90 1.28 132.86 1.28L132.86 1.28L132.86 1.28Q130.56 1.28 127.04 0.77L127.04 0.77L127.04 0.77Q120.13-0.32 118.02-0.32L118.02-0.32L118.02-0.32Q115.90-0.32 115.07-0.22L115.07-0.22L115.07-0.22Q114.24-0.13 112.90 0L112.90 0L120.77-42.24L148.35-42.24L148.35-42.24Q148.35-38.34 146.46-36.29L146.46-36.29L146.46-36.29Q144.58-34.24 140.86-34.24L140.86-34.24L140.86-34.24Q137.15-34.24 133.38-35.97L133.38-35.97L131.39-24.77L142.78-24.77L142.78-24.77Q142.78-21.38 141.12-19.49L141.12-19.49L141.12-19.49Q139.46-17.60 136.67-17.60L136.67-17.60L136.67-17.60Q133.89-17.60 132.16-18.24L132.16-18.24L132.16-18.24Q130.43-18.88 130.24-19.07L130.24-19.07L127.94-6.98L127.94-6.98Q129.47-6.78 132.35-6.78L132.35-6.78L132.35-6.78Q137.28-6.78 140.80-9.86ZM181.31-13.25L181.31-13.25L181.31-13.25Q182.98-12.03 182.98-9.44L182.98-9.44L182.98-9.44Q182.98-6.85 181.86-5.02L181.86-5.02L181.86-5.02Q180.74-3.20 178.56-1.79L178.56-1.79L178.56-1.79Q173.89 1.22 165.73 1.22L165.73 1.22L165.73 1.22Q157.57 1.22 153.12-3.04L153.12-3.04L153.12-3.04Q148.67-7.30 148.67-14.85L148.67-14.85L148.67-14.85Q148.67-25.54 154.24-33.66L154.24-33.66L154.24-33.66Q158.46-39.68 166.02-42.24L166.02-42.24L166.02-42.24Q169.92-43.52 173.76-43.52L173.76-43.52L173.76-43.52Q177.60-43.52 179.97-43.01L179.97-43.01L179.97-43.01Q182.34-42.50 184.13-41.47L184.13-41.47L184.13-41.47Q188.03-39.23 188.03-35.65L188.03-35.65L188.03-35.65Q188.03-32.38 184.96-29.95L184.96-29.95L184.96-29.95Q182.14-27.78 179.84-27.78L179.84-27.78L179.84-27.78Q177.54-27.78 176.58-28.10L176.58-28.10L176.58-28.10Q176.83-30.40 176.83-31.90L176.83-31.90L176.83-31.90Q176.83-33.41 176.77-34.50L176.77-34.50L176.77-34.50Q176.70-35.58 176.38-36.61L176.38-36.61L176.38-36.61Q175.74-38.98 173.79-38.98L173.79-38.98L173.79-38.98Q171.84-38.98 169.89-37.15L169.89-37.15L169.89-37.15Q167.94-35.33 166.27-32.26L166.27-32.26L166.27-32.26Q162.50-25.28 162.50-17.02L162.50-17.02L162.50-17.02Q162.50-13.06 164.74-10.78L164.74-10.78L164.74-10.78Q166.98-8.51 171.78-8.51L171.78-8.51L171.78-8.51Q175.36-8.51 178.75-10.88L178.75-10.88L178.75-10.88Q180.22-11.90 181.31-13.25ZM193.41-31.17L193.41-31.17L193.41-31.17Q191.23-32.83 191.23-36.38L191.23-36.38L191.23-36.38Q191.23-39.94 193.57-41.79L193.57-41.79L193.57-41.79Q195.90-43.65 199.94-43.65L199.94-43.65L199.94-43.65Q202.50-43.65 208.58-42.75L208.58-42.75L212.93-42.11L212.93-42.11Q215.10-41.86 217.38-41.86L217.38-41.86L217.38-41.86Q219.65-41.86 221.18-42.82L221.18-42.82L221.18-42.82Q223.49-40.77 223.49-37.82L223.49-37.82L223.49-37.82Q223.49-34.88 220.86-32.77L220.86-32.77L220.86-32.77Q218.18-30.53 214.72-30.53L214.72-30.53L214.72-30.53Q213.06-30.53 210.37-30.98L210.37-30.98L210.37-30.98Q207.23-21.12 207.23-14.27L207.23-14.27L207.23-14.27Q207.23-7.42 210.69-3.84L210.69-3.84L210.69-3.84Q209.09-0.96 206.72 0.16L206.72 0.16L206.72 0.16Q204.35 1.28 200.80 1.28L200.80 1.28L200.80 1.28Q197.25 1.28 195.04-0.67L195.04-0.67L195.04-0.67Q192.83-2.62 192.83-6.66L192.83-6.66L192.83-6.66Q192.83-11.33 195.39-19.01L195.39-19.01L195.39-19.01Q197.95-26.62 201.79-32.45L201.79-32.45L201.79-32.45Q199.94-32.64 198.02-32.64L198.02-32.64L198.02-32.64Q194.05-32.64 193.41-31.17ZM232.45 1.28L232.45 1.28L232.45 1.28Q218.37 1.28 218.37-11.97L218.37-11.97L218.37-11.97Q218.37-21.38 223.55-27.46L223.55-27.46L223.55-27.46Q229.06-33.92 238.59-33.92L238.59-33.92L238.59-33.92Q245.50-33.92 249.02-30.72L249.02-30.72L249.02-30.72Q252.54-27.52 252.54-20.80L252.54-20.80L252.54-20.80Q252.54-10.56 247.04-4.61L247.04-4.61L247.04-4.61Q241.66 1.28 232.45 1.28ZM234.11-26.56L234.11-26.56L234.11-26.56Q233.34-24.83 232.74-22.24L232.74-22.24L232.74-22.24Q232.13-19.65 231.36-15.55L231.36-15.55L231.36-15.55Q230.59-11.46 230.59-6.40L230.59-6.40L230.59-6.40Q230.59-4.74 231.14-3.65L231.14-3.65L231.14-3.65Q231.68-2.56 233.15-2.56L233.15-2.56L233.15-2.56Q234.62-2.56 235.55-3.26L235.55-3.26L235.55-3.26Q236.48-3.97 237.18-5.63L237.18-5.63L237.18-5.63Q238.46-8.58 239.49-14.05L239.49-14.05L239.49-14.05Q240.51-19.52 240.61-21.89L240.61-21.89L240.61-21.89Q240.70-24.26 240.70-26.02L240.70-26.02L240.70-26.02Q240.70-27.78 240.19-28.93L240.19-28.93L240.19-28.93Q239.68-30.08 238.24-30.08L238.24-30.08L238.24-30.08Q236.80-30.08 235.84-29.18L235.84-29.18L235.84-29.18Q234.88-28.29 234.11-26.56ZM276.35-17.98L276.35-17.98L276.35-17.98Q278.66-22.08 278.66-26.24L278.66-26.24L278.66-26.24Q278.66-28.99 276.67-28.99L276.67-28.99L276.67-28.99Q275.14-28.99 273.54-26.37L273.54-26.37L273.54-26.37Q271.87-23.74 271.36-20.35L271.36-20.35L268.03 0L254.78 1.28L261.31-32.64L271.87-33.92L270.72-27.46L270.72-27.46Q273.86-33.92 280.90-33.92L280.90-33.92L280.90-33.92Q284.61-33.92 286.62-32L286.62-32L286.62-32Q288.64-30.08 288.64-26.14L288.64-26.14L288.64-26.14Q288.64-22.21 286.05-19.71L286.05-19.71L286.05-19.71Q283.46-17.22 279.04-17.22L279.04-17.22L279.04-17.22Q277.12-17.22 276.35-17.98Z" fill="url(#editing-gradow-gradient)"></path></g></g><style>text {
  font-size: 64px;
  font-family: Arial Black;
  dominant-baseline: central;
  text-anchor: middle;
}</style></svg>